inDegrees=yes
name=ik_s24_walk_orientation
DataType=double
version=3
OpenSimVersion=4.5
endheader
time	pelvis_tilt	pelvis_list	pelvis_rotation	pelvis_tx	pelvis_ty	pelvis_tz	hip_flexion_r	hip_adduction_r	hip_rotation_r	knee_angle_r	knee_angle_r_beta	ankle_angle_r	subtalar_angle_r	mtp_angle_r	hip_flexion_l	hip_adduction_l	hip_rotation_l	knee_angle_l	knee_angle_l_beta	ankle_angle_l	subtalar_angle_l	mtp_angle_l	lumbar_extension	lumbar_bending	lumbar_rotation	arm_flex_r	arm_add_r	arm_rot_r	elbow_flex_r	pro_sup_r	wrist_flex_r	wrist_dev_r	arm_flex_l	arm_add_l	arm_rot_l	elbow_flex_l	pro_sup_l	wrist_flex_l	wrist_dev_l
3.788461538461529	1.626580496579241	-9.828186353156202	97.60139279228444	0	0.93	0	-3.03283624874063	-17.92369227791358	-39.94474837706665	0.01808708973655459	0.0003156792680065513	-4.999971090992446	0	0	-8.190786765305074	3.463085642366035	-39.98872128666577	0.07406595538406949	0.001292694785087234	-4.999971090944323	0	0	0	0	-8.87534903033212e-12	0	0	84.02457203639464	0	2.047042813115737e-42	0	0	0	0	88.60124582842241	0	6.256274989618602e-40	0	0
3.807692307692299	1.384121188149637	-9.575110766862613	99.48062522635733	0	0.93	0	-1.478701984767968	-16.56934913874044	-39.96682399667785	0.0159035924610971	0.0002775700513414926	-4.999971605367504	0	0	-2.053122187860097	1.50652811127244	-39.99108495494122	0.9874904533665247	0.01723495974325738	-4.999971605320239	0	0	0	0	-8.87534903033212e-12	0	0	81.94752635487704	0	0	0	0	0	0	86.9067010397073	0	0	0	0
3.826923076923068	1.978446516118205	-9.419131766528761	98.33375304202143	0	0.93	0	-2.806218986536413	-15.57665978208497	-39.97031754726974	0.01382240164859076	0.000241246419301001	-4.999974029020212	0	0	12.63981788680029	-7.831930463141801	-39.99064084818742	14.85993466373612	0.2593547865134317	-4.99997402897699	0	0	0	0	-8.87534903033212e-12	0	0	81.61425003609638	0	1.839829371267162e-38	0	0	0	0	82.88381812995947	2.658774993616467e-39	0	0	0
3.846153846153837	-1.065156436417188	-8.905940618985312	98.67489065458129	0	0.93	0	-0.7676859711045807	-19.24336030148788	-39.96306762957538	0.01465606466809326	0.0002557965838434373	-4.999974627600127	0	0	-4.825621756120738	0.3193664816825687	-39.99015732153033	3.004219307783431	0.05243351837280578	-4.999974627557907	0	0	0	0	-8.87534903033212e-12	0	0	79.86212611476257	0	0	0	0	0	0	79.26804162763786	0	0	0	0
3.865384615384606	-3.750834369359634	-9.24280484266583	100.4637951328967	0	0.93	0	-0.2325403200537689	-23.69168759992423	-39.9570206303384	0.01750066072662545	0.0003054441509540774	-4.999974928631024	0	0	-15.33395615208834	9.138388687555048	-39.99112487985692	0.06285031271405946	0.001096944892768391	-4.999974928589241	0	0	0	0	-8.87534903033212e-12	0	0	76.30349274347131	0	2.285865154170868e-38	0	0	0	0	79.19590037354989	2.104714535737113e-38	8.878963130591352e-39	0	0
3.884615384615375	-5.034744301467995	-9.217318414862447	102.5087184359601	0	0.93	0	0.9457865676349858	-28.0820579001193	-39.90955350091124	0.02049047461065694	0.0003576262472522668	-4.999975786044484	0	0	-9.724135781773347	8.376369100302625	-39.99068941337104	3.093006637464194	0.05398314960978878	-4.999975786004144	0	0	0	0	-8.87534903033212e-12	0	0	74.14258768908111	0	3.387170580917719e-44	0	0	0	0	79.57851634598296	1.003606098049695e-44	4.155556499737017e-45	0	0
3.903846153846144	-5.937716029871245	-9.362642689461188	102.3625367586773	0	0.93	0	-3.690003316401282	-28.88578740420031	-34.87171352383449	0.05043188113019596	0.0008802023736963185	-4.999976310769807	0	0	-11.35197100026282	15.14021264920399	-39.98899543264147	1.127195194434072	0.01967326745553221	-4.99997631073035	0	0	0	0	-8.87534903033212e-12	0	0	74.68310085907349	1.039481215378296e-38	0	0	0	0	0	78.43084182333054	2.375063188706024e-38	0	0	0
3.923076923076914	-6.088828000665956	-10.05530049011774	100.6738663918849	0	0.93	0	-1.260225694463511	-8.034680926487475	-26.61688246481316	0.04918286877374665	0.0008584029956781851	-4.999977748600011	0	0	-13.94240088471729	18.68373545507088	-39.98781562754987	0.1222124309327486	0.002133009306642627	-4.999977748549083	0	0	0	0	-8.87534903033212e-12	0	0	76.99810673259807	0	1.052357267868557e-38	0	0	0	0	77.54567662685923	7.925188819545249e-39	0	0	0
3.942307692307683	-4.187589373178662	-11.4520663578095	100.1382860954588	0	0.93	0	-2.676166831675042	-2.144227060895699	-28.66732392747079	0.01354029463309344	0.000236322723037598	-4.999978009362638	0	0	-13.42307646656347	14.80273697893973	-39.98680362527465	0.2115055015923252	0.003691467388868185	-4.999978009309992	0	0	0	0	-8.87534903033212e-12	0	0	77.95087578699157	7.448639008962577e-46	0	0	0	0	0	78.01854232897759	1.077624999251142e-45	5.603257248284122e-46	0	0
3.961538461538452	-3.122711983045148	-13.00752039751454	99.88039344083238	0	0.93	0	9.349751627051253	-16.91149309388067	-32.16048424011531	0.009224477163335881	0.0001609974982752379	-4.999979286867992	0	0	-11.95269067152902	11.31961908676437	-39.98508240673453	0.3163097052069291	0.005520645811873565	-4.999979286819353	0	0	0	0	-8.87534903033212e-12	0	0	78.77793587840594	1.803354707433045e-45	0	0	0	0	0	78.91119268827147	0	2.195388339483707e-45	0	0
3.980769230769221	-3.085142537430672	-12.91047328578695	98.66310868086779	0	0.93	0	6.456742732706761	-22.99610304303869	-34.6026611729006	0.008370402551589388	0.0001460910842425693	-4.999979740436723	0	0	-19.14440439988905	8.184755822611159	-39.9841798138716	0.02864570331948091	0.0004999618394744109	-4.99997974038916	0	0	0	0	-8.87534903033212e-12	0	0	80.75188839672792	1.577544934869083e-38	1.593199731633546e-38	0	0	0	0	76.16214414912355	2.093370825015062e-38	0	0	0
3.99999999999999	-4.495287240897421	-12.37011631058321	96.7697596710161	0	0.93	0	4.766502365291545	-30.99322593232639	-32.7340868545217	0.01049134573831509	0.0001831085260986737	-4.999980079517818	0	0	-29.52283110496617	8.274441113505002	-39.98242978575576	0.01398287759553112	0.0002440472529453659	-4.999980079471164	0	0	0	0	-8.87534903033212e-12	0	0	83.4581668255188	0	0	0	0	0	0	73.868379903932	2.360769530518986e-39	9.274960813162705e-39	0	0
4.019230769230759	-5.195573630041172	-11.41779257931779	95.48913532793736	0	0.93	0	-2.218373243911878	-32.01726215033843	-22.66917580517214	0.02547115918036797	0.0004445555919970012	-4.999980927734159	0	0	-29.88270707395276	7.515595087073066	-39.98151384976948	0.015140649640681	0.0002642541871207798	-4.999980927689505	0	0	0	0	-8.87534903033212e-12	0	0	84.56982307980829	0	0	0	0	0	0	71.92970054536265	6.586165018451122e-45	0	0	0
